<svg width="32" height="32" viewBox="0 0 32 32" fill="none" xmlns="http://www.w3.org/2000/svg">
<path d="M16 0.5C7.16129 0.5 0 7.3629 0 15.8333C0 24.3038 7.16129 31.1667 16 31.1667C24.8387 31.1667 32 24.3038 32 15.8333C32 7.3629 24.8387 0.5 16 0.5ZM23.8581 11.0046L21.2323 22.8632C21.0387 23.704 20.5161 23.9081 19.7871 23.5124L15.7871 20.6868L13.8581 22.4675C13.6452 22.6715 13.4645 22.8446 13.0516 22.8446L13.3355 18.9433L20.7484 12.5255C21.071 12.2535 20.6774 12.0989 20.2516 12.371L11.0903 17.8984L7.14193 16.7175C6.28387 16.4578 6.26452 15.8952 7.32258 15.4995L22.7484 9.79893C23.4645 9.55161 24.0903 9.96586 23.8581 11.0046Z" fill="white"/>
</svg>
