<svg width="144" height="56" viewBox="0 0 144 56" fill="none" xmlns="http://www.w3.org/2000/svg">
<g filter="url(#filter0_dii_545_4)">
<rect x="-0.161673" y="-0.160966" width="12.5784" height="12.6778" rx="1.61231" transform="matrix(0.999998 -0.0021999 0.00218234 0.999998 108.661 21.0425)" stroke="url(#paint0_linear_545_4)" stroke-width="0.322643"/>
<rect width="9.37205" height="9.44807" transform="matrix(0.999998 -0.00220878 0.00217352 0.999998 110.112 22.4858)" fill="url(#paint1_linear_545_4)"/>
<rect width="1.24024" height="0.248048" transform="matrix(0.999999 -0.00110436 0.0010868 0.999999 108.672 22.5009)" fill="#EC3678"/>
<rect width="1.24024" height="0.248048" transform="matrix(0.999999 -0.00110436 0.0010868 0.999999 108.672 22.9969)" fill="#EC3678"/>
<rect width="1.24024" height="0.248048" transform="matrix(0.999999 -0.00110436 0.0010868 0.999999 108.673 23.4932)" fill="#EC3678"/>
<rect width="1.24024" height="0.248048" transform="matrix(0.999999 -0.00110436 0.0010868 0.999999 108.674 23.9891)" fill="#EC3678"/>
<rect width="1.24024" height="0.248048" transform="matrix(0.999999 -0.00110436 0.0010868 0.999999 108.674 24.485)" fill="#EC3678"/>
<rect width="1.24024" height="0.248048" transform="matrix(0.999999 -0.00110436 0.0010868 0.999999 108.675 24.9813)" fill="#EC3678"/>
<rect width="1.24024" height="0.248048" transform="matrix(0.999999 -0.00110436 0.0010868 0.999999 108.675 25.4774)" fill="#EC3678"/>
<rect width="1.24024" height="0.248048" transform="matrix(0.999999 -0.00110436 0.0010868 0.999999 108.676 25.9734)" fill="#EC3678"/>
<rect width="1.24024" height="0.248048" transform="matrix(0.999999 -0.00110436 0.0010868 0.999999 108.676 26.4696)" fill="#EC3678"/>
<rect width="1.24024" height="0.248048" transform="matrix(0.999999 -0.00110436 0.0010868 0.999999 108.677 26.9655)" fill="#EC3678"/>
<rect width="1.24024" height="0.248048" transform="matrix(0.999999 -0.00110436 0.0010868 0.999999 108.677 27.4618)" fill="#EC3678"/>
<rect width="1.24024" height="0.248048" transform="matrix(0.999999 -0.00110436 0.0010868 0.999999 108.678 27.958)" fill="#EC3678"/>
<rect width="1.24024" height="0.248048" transform="matrix(0.999999 -0.00110436 0.0010868 0.999999 108.678 28.454)" fill="#EC3678"/>
<rect width="1.24024" height="0.248048" transform="matrix(0.999999 -0.00110436 0.0010868 0.999999 108.679 28.9501)" fill="#EC3678"/>
<rect width="1.24024" height="0.248048" transform="matrix(0.999999 -0.00110436 0.0010868 0.999999 108.679 29.4462)" fill="#EC3678"/>
<rect width="1.24024" height="0.248048" transform="matrix(0.999999 -0.00110436 0.0010868 0.999999 108.68 29.9422)" fill="#EC3678"/>
<rect width="1.24024" height="0.248048" transform="matrix(0.999999 -0.00110436 0.0010868 0.999999 108.68 30.4384)" fill="#EC3678"/>
<rect width="1.24024" height="0.248048" transform="matrix(0.999999 -0.00110436 0.0010868 0.999999 108.681 30.9345)" fill="#EC3678"/>
<rect width="1.24024" height="0.248048" transform="matrix(0.999999 -0.00110436 0.0010868 0.999999 108.682 31.4306)" fill="#EC3678"/>
<rect width="1.24024" height="0.248048" transform="matrix(-0.999995 0.00331321 0.00326024 0.999995 120.915 22.4738)" fill="#EC3678"/>
<rect width="1.24024" height="0.248048" transform="matrix(-0.999995 0.00331321 0.00326024 0.999995 120.917 22.9697)" fill="#EC3678"/>
<rect width="1.24024" height="0.248048" transform="matrix(-0.999995 0.00331321 0.00326024 0.999995 120.918 23.4659)" fill="#EC3678"/>
<rect width="1.24024" height="0.248048" transform="matrix(-0.999995 0.00331321 0.00326024 0.999995 120.92 23.962)" fill="#EC3678"/>
<rect width="1.24024" height="0.248048" transform="matrix(-0.999995 0.00331321 0.00326024 0.999995 120.922 24.4581)" fill="#EC3678"/>
<rect width="1.24024" height="0.248048" transform="matrix(-0.999995 0.00331321 0.00326024 0.999995 120.923 24.9542)" fill="#EC3678"/>
<rect width="1.24024" height="0.248048" transform="matrix(-0.999995 0.00331321 0.00326024 0.999995 120.925 25.4503)" fill="#EC3678"/>
<rect width="1.24024" height="0.248048" transform="matrix(-0.999995 0.00331321 0.00326024 0.999995 120.926 25.9462)" fill="#EC3678"/>
<rect width="1.24024" height="0.248048" transform="matrix(-0.999995 0.00331321 0.00326024 0.999995 120.928 26.4425)" fill="#EC3678"/>
<rect width="1.24024" height="0.248048" transform="matrix(-0.999995 0.00331321 0.00326024 0.999995 120.93 26.9386)" fill="#EC3678"/>
<rect width="1.24024" height="0.248048" transform="matrix(-0.999995 0.00331321 0.00326024 0.999995 120.931 27.4346)" fill="#EC3678"/>
<rect width="1.24024" height="0.248048" transform="matrix(-0.999995 0.00331321 0.00326024 0.999995 120.933 27.9308)" fill="#EC3678"/>
<rect width="1.24024" height="0.248048" transform="matrix(-0.999995 0.00331321 0.00326024 0.999995 120.934 28.4268)" fill="#EC3678"/>
<rect width="1.24024" height="0.248048" transform="matrix(-0.999995 0.00331321 0.00326024 0.999995 120.936 28.923)" fill="#EC3678"/>
<rect width="1.24024" height="0.248048" transform="matrix(-0.999995 0.00331321 0.00326024 0.999995 120.938 29.419)" fill="#EC3678"/>
<rect width="1.24024" height="0.248048" transform="matrix(-0.999995 0.00331321 0.00326024 0.999995 120.939 29.9151)" fill="#EC3678"/>
<rect width="1.24024" height="0.248048" transform="matrix(-0.999995 0.00331321 0.00326024 0.999995 120.941 30.4112)" fill="#EC3678"/>
<rect width="1.24024" height="0.248048" transform="matrix(-0.999995 0.00331321 0.00326024 0.999995 120.943 30.9073)" fill="#EC3678"/>
<rect width="1.24024" height="0.248048" transform="matrix(-0.999995 0.00331321 0.00326024 0.999995 120.944 31.4034)" fill="#EC3678"/>
<rect width="1.24024" height="0.248048" transform="matrix(-0.0010868 -0.999999 0.999999 -0.00110436 110.136 33.3995)" fill="#EC3678"/>
<rect width="1.24024" height="0.248048" transform="matrix(-0.0010868 -0.999999 0.999999 -0.00110436 110.632 33.3991)" fill="#EC3678"/>
<rect width="1.24024" height="0.248048" transform="matrix(-0.0010868 -0.999999 0.999999 -0.00110436 111.128 33.3987)" fill="#EC3678"/>
<rect width="1.24024" height="0.248048" transform="matrix(-0.0010868 -0.999999 0.999999 -0.00110436 111.624 33.3979)" fill="#EC3678"/>
<rect width="1.24024" height="0.248048" transform="matrix(-0.0010868 -0.999999 0.999999 -0.00110436 112.12 33.3973)" fill="#EC3678"/>
<rect width="1.24024" height="0.248048" transform="matrix(-0.0010868 -0.999999 0.999999 -0.00110436 112.616 33.3968)" fill="#EC3678"/>
<rect width="1.24024" height="0.248048" transform="matrix(-0.0010868 -0.999999 0.999999 -0.00110436 113.112 33.3962)" fill="#EC3678"/>
<rect width="1.24024" height="0.248048" transform="matrix(-0.0010868 -0.999999 0.999999 -0.00110436 113.608 33.3957)" fill="#EC3678"/>
<rect width="1.24024" height="0.248048" transform="matrix(-0.0010868 -0.999999 0.999999 -0.00110436 114.104 33.3951)" fill="#EC3678"/>
<rect width="1.24024" height="0.248048" transform="matrix(-0.0010868 -0.999999 0.999999 -0.00110436 114.601 33.3946)" fill="#EC3678"/>
<rect width="1.24024" height="0.248048" transform="matrix(-0.0010868 -0.999999 0.999999 -0.00110436 115.097 33.394)" fill="#EC3678"/>
<rect width="1.24024" height="0.248048" transform="matrix(-0.0010868 -0.999999 0.999999 -0.00110436 115.593 33.3935)" fill="#EC3678"/>
<rect width="1.24024" height="0.248048" transform="matrix(-0.0010868 -0.999999 0.999999 -0.00110436 116.089 33.393)" fill="#EC3678"/>
<rect width="1.24024" height="0.248048" transform="matrix(-0.0010868 -0.999999 0.999999 -0.00110436 116.585 33.3925)" fill="#EC3678"/>
<rect width="1.24024" height="0.248048" transform="matrix(-0.0010868 -0.999999 0.999999 -0.00110436 117.081 33.3921)" fill="#EC3678"/>
<rect width="1.24024" height="0.248048" transform="matrix(-0.0010868 -0.999999 0.999999 -0.00110436 117.577 33.3916)" fill="#EC3678"/>
<rect width="1.24024" height="0.248048" transform="matrix(-0.0010868 -0.999999 0.999999 -0.00110436 118.073 33.3908)" fill="#EC3678"/>
<rect width="1.24024" height="0.248048" transform="matrix(-0.0010868 -0.999999 0.999999 -0.00110436 118.569 33.3904)" fill="#EC3678"/>
<rect width="1.24024" height="0.248048" transform="matrix(-0.0010868 -0.999999 0.999999 -0.00110436 119.065 33.3898)" fill="#EC3678"/>
<rect width="1.24024" height="0.248048" transform="matrix(0.00326408 0.999995 0.999995 -0.00330932 110.109 21.0546)" fill="#EC3678"/>
<rect width="1.24024" height="0.248048" transform="matrix(0.00326408 0.999995 0.999995 -0.00330932 110.605 21.0528)" fill="#EC3678"/>
<rect width="1.24024" height="0.248048" transform="matrix(0.00326408 0.999995 0.999995 -0.00330932 111.102 21.0513)" fill="#EC3678"/>
<rect width="1.24024" height="0.248048" transform="matrix(0.00326408 0.999995 0.999995 -0.00330932 111.598 21.0497)" fill="#EC3678"/>
<rect width="1.24024" height="0.248048" transform="matrix(0.00326408 0.999995 0.999995 -0.00330932 112.094 21.048)" fill="#EC3678"/>
<rect width="1.24024" height="0.248048" transform="matrix(0.00326408 0.999995 0.999995 -0.00330932 112.59 21.0464)" fill="#EC3678"/>
<rect width="1.24024" height="0.248048" transform="matrix(0.00326408 0.999995 0.999995 -0.00330932 113.086 21.0447)" fill="#EC3678"/>
<rect width="1.24024" height="0.248048" transform="matrix(0.00326408 0.999995 0.999995 -0.00330932 113.582 21.0431)" fill="#EC3678"/>
<rect width="1.24024" height="0.248048" transform="matrix(0.00326408 0.999995 0.999995 -0.00330932 114.078 21.0414)" fill="#EC3678"/>
<rect width="1.24024" height="0.248048" transform="matrix(0.00326408 0.999995 0.999995 -0.00330932 114.574 21.0398)" fill="#EC3678"/>
<rect width="1.24024" height="0.248048" transform="matrix(0.00326408 0.999995 0.999995 -0.00330932 115.07 21.0381)" fill="#EC3678"/>
<rect width="1.24024" height="0.248048" transform="matrix(0.00326408 0.999995 0.999995 -0.00330932 115.566 21.0365)" fill="#EC3678"/>
<rect width="1.24024" height="0.248048" transform="matrix(0.00326408 0.999995 0.999995 -0.00330932 116.063 21.0349)" fill="#EC3678"/>
<rect width="1.24024" height="0.248048" transform="matrix(0.00326408 0.999995 0.999995 -0.00330932 116.559 21.0332)" fill="#EC3678"/>
<rect width="1.24024" height="0.248048" transform="matrix(0.00326408 0.999995 0.999995 -0.00330932 117.055 21.0315)" fill="#EC3678"/>
<rect width="1.24024" height="0.248048" transform="matrix(0.00326408 0.999995 0.999995 -0.00330932 117.551 21.0298)" fill="#EC3678"/>
<rect width="1.24024" height="0.248048" transform="matrix(0.00326408 0.999995 0.999995 -0.00330932 118.047 21.0283)" fill="#EC3678"/>
<rect width="1.24024" height="0.248048" transform="matrix(0.00326408 0.999995 0.999995 -0.00330932 118.543 21.0266)" fill="#EC3678"/>
<rect width="1.24024" height="0.248048" transform="matrix(0.00326408 0.999995 0.999995 -0.00330932 119.039 21.0249)" fill="#EC3678"/>
</g>
<g filter="url(#filter1_dii_545_4)">
<path d="M117.678 13.0144C124.794 13.0065 130.68 19.1521 130.688 26.8274C130.696 34.4236 124.751 40.6614 117.708 40.6692L111.932 40.6756C104.889 40.6834 98.9303 34.4587 98.9221 26.8626C98.9138 19.1873 104.786 13.0287 111.902 13.0208L114.79 13.0176L117.678 13.0144ZM117.702 35.5749C121.957 35.5702 125.639 31.4224 125.634 26.833C125.629 22.1645 122.012 18.8317 117.684 18.8365L111.908 18.8428C107.58 18.8476 103.971 22.1885 103.976 26.857C103.981 31.4463 107.672 35.586 111.927 35.5813L117.702 35.5749Z" fill="url(#paint2_linear_545_4)"/>
</g>
<path d="M23.6632 13.118L28.9952 13.1121L29.0254 40.767L23.6934 40.7728C23.6904 37.9718 22.5198 35.2905 20.4939 33.3991L5.33877 19.3319L5.36221 40.793L0.0302027 40.7988L0 13.144L6.61636 13.1367L23.6806 29.0166L23.6632 13.118Z" fill="white"/>
<path d="M39.965 18.5837C38.6807 18.5851 37.5921 19.6515 37.5936 20.9928C37.595 22.2947 38.6859 23.3981 39.9703 23.3967L55.0712 23.3801L55.0771 28.7848L39.9762 28.8014C38.6918 28.8028 37.6037 30.2637 37.6056 31.9995C37.6074 33.6959 38.6988 35.1543 39.9831 35.1529L60.2603 35.1307L60.2663 40.5748L39.9891 40.5971C35.7468 40.6018 32.2787 36.7394 32.2736 32.0054C32.2712 29.7961 33.0084 27.7439 34.2522 26.2434C33.0052 24.8246 32.2637 23.0106 32.2615 20.9987C32.2568 16.6591 35.7168 13.1442 39.9591 13.1395L64.9456 13.1121L64.9515 18.5563L39.965 18.5837Z" fill="white"/>
<path d="M92.754 32.8068L96.7713 40.6925L90.7388 40.6991L88.0085 35.2974C87.4625 34.2328 86.5667 33.721 83.1807 33.7247L74.2681 33.7345L74.2622 28.2903L86.5997 28.2768C88.1176 28.2751 89.5177 27.3267 90.0221 25.906C90.7206 24.051 90.9123 21.4076 89.8598 19.8702C89.6649 19.5548 88.9632 18.5299 86.5891 18.5325L72.3834 18.5481L72.4076 40.7193L67.0756 40.7251L67.0454 13.1098L86.5831 13.0883C90.8643 13.0836 93.1238 15.0931 94.2933 16.7882C96.6322 20.2178 96.1703 24.9129 95.0448 27.8335C94.4628 29.4122 93.4134 30.7547 92.1691 31.7817C92.364 32.0971 92.5979 32.4519 92.754 32.8068Z" fill="white"/>
<path d="M5.32221 51.2265C5.3226 51.5865 5.21962 51.9066 5.01326 52.1868C4.81356 52.4671 4.52047 52.6874 4.13398 52.8478C3.75416 53.0082 3.28424 53.0887 2.72424 53.0893C2.26424 53.0899 1.81085 53.0337 1.36406 52.9208C0.923935 52.808 0.567104 52.6584 0.293567 52.472L0.842289 51.3014C1.10248 51.4745 1.40596 51.6108 1.75274 51.7104C2.09951 51.81 2.4529 51.8596 2.8129 51.8593C3.16623 51.8589 3.41284 51.8086 3.55274 51.7084C3.69263 51.6083 3.7625 51.4915 3.76235 51.3582C3.76221 51.2249 3.69876 51.1183 3.572 51.0384C3.45192 50.9585 3.29185 50.8954 3.0918 50.8489C2.89841 50.7958 2.68168 50.7461 2.44163 50.6997C2.20825 50.6532 1.97152 50.5935 1.73144 50.5204C1.49802 50.4474 1.28125 50.3509 1.08112 50.2312C0.887649 50.1047 0.727471 49.9415 0.600586 49.7417C0.48036 49.5351 0.42008 49.2785 0.419745 48.9719C0.419352 48.6119 0.522339 48.2951 0.728707 48.0215C0.941735 47.7413 1.24149 47.521 1.62799 47.3605C2.01448 47.2001 2.47439 47.1196 3.00772 47.119C3.36772 47.1186 3.73443 47.1582 4.10785 47.2378C4.48127 47.3174 4.80808 47.4437 5.08827 47.6167L4.57955 48.7873C4.31937 48.6276 4.04925 48.5146 3.76918 48.4482C3.49577 48.3818 3.2224 48.3488 2.94907 48.3491C2.61573 48.3495 2.37245 48.3997 2.21923 48.4999C2.06601 48.6001 1.98948 48.7268 1.98965 48.8802C1.98979 49.0135 2.04991 49.1201 2.17 49.2C2.29008 49.2798 2.44682 49.3463 2.64021 49.3994C2.84026 49.4459 3.06031 49.4923 3.30037 49.5387C3.54042 49.5851 3.77715 49.6449 4.01056 49.7179C4.24397 49.7843 4.46074 49.8774 4.66087 49.9972C4.861 50.117 5.02117 50.2768 5.14139 50.4767C5.2616 50.6699 5.32188 50.9198 5.32221 51.2265ZM6.32193 52.9754L6.31565 47.2254L7.63565 47.2239L10.0199 51.0913L9.37988 51.092L11.7057 47.2195L13.0356 47.218L13.0619 52.968L11.5819 52.9696L11.5681 49.4696L11.7881 49.4694L10.0313 52.3613L9.32127 52.3621L7.49811 49.4741L7.78811 49.4738L7.79193 52.9738L6.32193 52.9754ZM13.7334 52.9672L16.3071 47.2144L17.8671 47.2127L20.4634 52.9599L18.9034 52.9616L16.828 47.9738L17.358 47.9733L15.2634 52.9656L13.7334 52.9672ZM15.1422 51.8257L15.5509 50.6853L18.3909 50.6821L18.8022 51.8217L15.1422 51.8257ZM21.1461 52.9591L21.1399 47.2091L23.7599 47.2062C24.2932 47.2056 24.75 47.2918 25.1301 47.4647C25.517 47.631 25.8173 47.8706 26.0309 48.1837C26.2446 48.4968 26.3517 48.8767 26.3522 49.3234C26.3526 49.7567 26.2464 50.1302 26.0334 50.4437C25.8204 50.7573 25.5207 50.9976 25.1342 51.1647C24.7544 51.3318 24.2978 51.4156 23.7645 51.4162L22.0145 51.4181L22.7237 50.7474L22.7261 52.9574L21.1461 52.9591ZM24.7661 52.9551L23.3139 50.8667L24.9939 50.8649L26.4661 52.9533L24.7661 52.9551ZM22.7239 50.9274L22.1432 50.218L23.6531 50.2163C24.0198 50.2159 24.2964 50.139 24.4829 49.9854C24.6694 49.8252 24.7625 49.6051 24.7622 49.3251C24.7619 49.0385 24.6683 48.8186 24.4815 48.6654C24.2946 48.5123 24.0179 48.4359 23.6512 48.4363L22.1412 48.438L22.7204 47.7274L22.7239 50.9274ZM28.564 52.951L28.5591 48.431L26.7491 48.4329L26.7478 47.2029L31.9477 47.1972L31.9491 48.4272L30.1391 48.4292L30.144 52.9492L28.564 52.951ZM35.5993 52.9432L35.593 47.1932L37.173 47.1915L37.1779 51.7115L39.9879 51.7084L39.9893 52.9384L35.5993 52.9432ZM40.8434 52.9375L40.8371 47.1875L42.4171 47.1857L42.4234 52.9357L40.8434 52.9375ZM46.759 53.041C46.139 53.0416 45.5855 52.9156 45.0986 52.6628C44.6116 52.4033 44.2279 52.0471 43.9474 51.594C43.6669 51.141 43.5263 50.6278 43.5257 50.0545C43.5251 49.4812 43.6645 48.971 43.944 48.524C44.2236 48.0771 44.6065 47.7233 45.0929 47.4628C45.5793 47.2022 46.1325 47.0716 46.7525 47.071C47.3725 47.0703 47.9259 47.1997 48.4129 47.4591C48.8998 47.7186 49.2836 48.0715 49.564 48.5179C49.8445 48.9642 49.9851 49.4741 49.9857 50.0474C49.9863 50.6207 49.8469 51.1342 49.5674 51.5879C49.2879 52.0415 48.9049 52.3986 48.4186 52.6591C47.9322 52.913 47.379 53.0403 46.759 53.041ZM48.6904 54.2988C48.357 54.2992 48.0503 54.2529 47.7702 54.1598C47.4968 54.0735 47.2166 53.9171 46.9297 53.6908C46.6495 53.4711 46.3291 53.1714 45.9687 52.7918L47.6283 52.39C47.7752 52.5898 47.902 52.7464 48.0088 52.8596C48.1222 52.9728 48.2357 53.0527 48.349 53.0992C48.4624 53.1458 48.5858 53.1689 48.7191 53.1688C49.0391 53.1685 49.329 53.0381 49.5887 52.7778L50.2996 53.6071C50.1065 53.8406 49.8734 54.0142 49.6002 54.1278C49.327 54.2415 49.0237 54.2985 48.6904 54.2988ZM46.7576 51.751C47.0776 51.7506 47.3575 51.6803 47.5973 51.54C47.8439 51.3931 48.037 51.1896 48.1767 50.9294C48.3164 50.6692 48.3861 50.3758 48.3857 50.0492C48.3854 49.7225 48.315 49.4326 48.1748 49.1794C48.0345 48.9262 47.8409 48.7264 47.5941 48.58C47.354 48.4336 47.0739 48.3606 46.7539 48.361C46.4405 48.3613 46.1606 48.4349 45.9141 48.5819C45.6676 48.7288 45.4712 48.929 45.3248 49.1825C45.185 49.436 45.1154 49.7261 45.1157 50.0528C45.1161 50.3794 45.1864 50.6727 45.3267 50.9325C45.4736 51.1924 45.6705 51.3955 45.9173 51.5419C46.1642 51.6816 46.4442 51.7513 46.7576 51.751ZM53.7672 53.0333C53.2005 53.0339 52.7137 52.9311 52.3068 52.7249C51.9 52.5186 51.5863 52.2223 51.3659 51.8359C51.1521 51.4428 51.0449 50.9796 51.0444 50.4462L51.0408 47.1762L52.6208 47.1745L52.6243 50.3945C52.6248 50.8412 52.7252 51.1777 52.9254 51.4042C53.1256 51.6306 53.4124 51.7436 53.7858 51.7432C54.1591 51.7428 54.4423 51.6292 54.6354 51.4023C54.8285 51.1754 54.9248 50.8386 54.9243 50.392L54.9208 47.172L56.4808 47.1703L56.4844 50.4403C56.4849 50.9736 56.3788 51.437 56.1659 51.8306C55.953 52.2175 55.6433 52.5145 55.2368 52.7216C54.8304 52.9288 54.3405 53.0326 53.7672 53.0333ZM57.9625 52.9186L57.9562 47.1686L59.5362 47.1669L59.5425 52.9169L57.9625 52.9186ZM61.068 52.9152L61.0617 47.1652L63.7717 47.1623C64.4317 47.1615 65.0052 47.2776 65.4921 47.5104C65.9857 47.7432 66.366 48.0761 66.6332 48.5091C66.907 48.9355 67.0442 49.4453 67.0449 50.0387C67.0455 50.6253 66.9094 51.1355 66.6365 51.5691C66.3703 51.9961 65.9907 52.3265 65.4976 52.5604C65.0112 52.7942 64.438 52.9115 63.778 52.9123L61.068 52.9152ZM62.6466 51.6735L63.7266 51.6723C64.08 51.6719 64.3832 51.6083 64.6364 51.4813C64.8963 51.3544 65.0961 51.1708 65.2358 50.9306C65.3756 50.6838 65.4452 50.3871 65.4449 50.0404C65.4445 49.6871 65.3741 49.3905 65.2339 49.1507C65.0936 48.9041 64.8934 48.7177 64.6333 48.5913C64.3798 48.4649 64.0764 48.4019 63.7231 48.4023L62.6431 48.4035L62.6466 51.6735Z" fill="white"/>
<defs>
<filter id="filter0_dii_545_4" x="95.6132" y="7.96796" width="38.3786" height="38.478" filterUnits="userSpaceOnUse" color-interpolation-filters="sRGB">
<feFlood flood-opacity="0" result="BackgroundImageFix"/>
<feColorMatrix in="SourceAlpha" type="matrix" values="0 0 0 0 0 0 0 0 0 0 0 0 0 0 0 0 0 0 127 0" result="hardAlpha"/>
<feOffset/>
<feGaussianBlur stdDeviation="6.36424"/>
<feComposite in2="hardAlpha" operator="out"/>
<feColorMatrix type="matrix" values="0 0 0 0 0 0 0 0 0 0 0 0 0 0 0 0 0 0 0.25 0"/>
<feBlend mode="normal" in2="BackgroundImageFix" result="effect1_dropShadow_545_4"/>
<feBlend mode="normal" in="SourceGraphic" in2="effect1_dropShadow_545_4" result="shape"/>
<feColorMatrix in="SourceAlpha" type="matrix" values="0 0 0 0 0 0 0 0 0 0 0 0 0 0 0 0 0 0 127 0" result="hardAlpha"/>
<feOffset dy="1.01828"/>
<feGaussianBlur stdDeviation="1.90927"/>
<feComposite in2="hardAlpha" operator="arithmetic" k2="-1" k3="1"/>
<feColorMatrix type="matrix" values="0 0 0 0 1 0 0 0 0 1 0 0 0 0 1 0 0 0 0.4 0"/>
<feBlend mode="normal" in2="shape" result="effect2_innerShadow_545_4"/>
<feColorMatrix in="SourceAlpha" type="matrix" values="0 0 0 0 0 0 0 0 0 0 0 0 0 0 0 0 0 0 127 0" result="hardAlpha"/>
<feOffset dy="-1.52742"/>
<feGaussianBlur stdDeviation="1.78199"/>
<feComposite in2="hardAlpha" operator="arithmetic" k2="-1" k3="1"/>
<feColorMatrix type="matrix" values="0 0 0 0 0 0 0 0 0 0 0 0 0 0 0 0 0 0 0.25 0"/>
<feBlend mode="normal" in2="effect2_innerShadow_545_4" result="effect3_innerShadow_545_4"/>
</filter>
<filter id="filter1_dii_545_4" x="86.1936" y="0.285893" width="57.2227" height="53.1182" filterUnits="userSpaceOnUse" color-interpolation-filters="sRGB">
<feFlood flood-opacity="0" result="BackgroundImageFix"/>
<feColorMatrix in="SourceAlpha" type="matrix" values="0 0 0 0 0 0 0 0 0 0 0 0 0 0 0 0 0 0 127 0" result="hardAlpha"/>
<feOffset/>
<feGaussianBlur stdDeviation="6.36424"/>
<feComposite in2="hardAlpha" operator="out"/>
<feColorMatrix type="matrix" values="0 0 0 0 0 0 0 0 0 0 0 0 0 0 0 0 0 0 0.25 0"/>
<feBlend mode="normal" in2="BackgroundImageFix" result="effect1_dropShadow_545_4"/>
<feBlend mode="normal" in="SourceGraphic" in2="effect1_dropShadow_545_4" result="shape"/>
<feColorMatrix in="SourceAlpha" type="matrix" values="0 0 0 0 0 0 0 0 0 0 0 0 0 0 0 0 0 0 127 0" result="hardAlpha"/>
<feOffset dy="1.01828"/>
<feGaussianBlur stdDeviation="1.90927"/>
<feComposite in2="hardAlpha" operator="arithmetic" k2="-1" k3="1"/>
<feColorMatrix type="matrix" values="0 0 0 0 1 0 0 0 0 1 0 0 0 0 1 0 0 0 0.4 0"/>
<feBlend mode="normal" in2="shape" result="effect2_innerShadow_545_4"/>
<feColorMatrix in="SourceAlpha" type="matrix" values="0 0 0 0 0 0 0 0 0 0 0 0 0 0 0 0 0 0 127 0" result="hardAlpha"/>
<feOffset dy="-1.52742"/>
<feGaussianBlur stdDeviation="1.78199"/>
<feComposite in2="hardAlpha" operator="arithmetic" k2="-1" k3="1"/>
<feColorMatrix type="matrix" values="0 0 0 0 0 0 0 0 0 0 0 0 0 0 0 0 0 0 0.25 0"/>
<feBlend mode="normal" in2="effect2_innerShadow_545_4" result="effect3_innerShadow_545_4"/>
</filter>
<linearGradient id="paint0_linear_545_4" x1="6.12788" y1="0" x2="6.12788" y2="12.3552" gradientUnits="userSpaceOnUse">
<stop stop-color="#F24572"/>
<stop offset="0.9375" stop-color="#E41882"/>
</linearGradient>
<linearGradient id="paint1_linear_545_4" x1="9.37201" y1="9.37693" x2="-1.33722" y2="1.78622" gradientUnits="userSpaceOnUse">
<stop stop-color="#EC008C"/>
<stop offset="1" stop-color="#FC6767"/>
</linearGradient>
<linearGradient id="paint2_linear_545_4" x1="98.9071" y1="13.0349" x2="131.38" y2="39.8343" gradientUnits="userSpaceOnUse">
<stop offset="0.00553601" stop-color="#FF512F"/>
<stop offset="1" stop-color="#DD2476"/>
</linearGradient>
</defs>
</svg>
