<svg width="290" height="311" viewBox="0 0 290 311" fill="none" xmlns="http://www.w3.org/2000/svg">
<g filter="url(#filter0_f_205_1005)">
<path d="M70.3491 127.314L75.0825 127.314C105.182 129.618 115.62 133.618 123.488 141.983L124.334 146.105C124.31 147.111 124.39 147.671 125.066 148.651L127.129 152.651C133.855 160.478 142.179 166.108 148.975 173.018C158.381 181.803 159.211 187.108 159.656 196.658L160.263 198.113L161.112 197.143C161.486 191.004 161.591 187.667 162.811 180.656C165.678 171.154 168.07 165.805 175.434 156.167L175.556 155.937C177.037 153.146 177.905 151.511 179.075 148.651C179.625 147.194 179.848 146.303 180.046 144.529C196.409 142.417 205.621 150.561 222.039 162.471L226.409 165.502L234.683 170.109C234.234 174.614 233.187 175.737 231.264 178.959C231.832 192.218 229.888 196.26 225.681 202.356C226.921 206.716 226.193 209.506 221.948 215.168C222.334 223.072 216.578 228.409 206.14 236.301C206.907 243.308 202.536 244.435 196.694 248.909C196.087 258.123 188.646 264.052 175.279 262.822C163.881 274.515 151.961 269.994 149.582 265.033C144.849 274.126 131.741 273.034 122.031 264.669C112.273 265.397 107.509 263 100.67 252.154C90.5461 249.532 84.0024 239.228 86.8235 233.052C78.0357 229.96 70.2313 222.185 69.7179 205.508C67.6336 202.537 67.2516 200.547 66.8051 196.901C62.2078 189.055 59.8796 184.451 64.9845 168.654C60.1326 160.289 62.0014 141.658 71.4171 136.649C70.1719 133.609 70.1575 130.335 70.3491 127.314Z" fill="url(#paint0_radial_205_1005)"/>
<path d="M75.0825 127.314L70.3491 127.314C70.1576 130.335 70.1719 133.609 71.4171 136.649M75.0825 127.314L71.4171 136.649M75.0825 127.314C105.182 129.618 115.62 133.618 123.488 141.983L124.334 146.105M71.4171 136.649C62.0014 141.658 60.1326 160.289 64.9845 168.654M71.4171 136.649C68.4616 152.189 70.4532 154.725 75.5436 156.652M64.9845 168.654C68.3898 163.108 70.448 160.596 74.8154 159.077M64.9845 168.654C59.8796 184.451 62.2078 189.055 66.8051 196.901M74.8154 159.077L75.5436 156.652M74.8154 159.077C74.3983 162.343 74.4436 164.115 74.8154 167.078M75.5436 156.652C85.9016 136.701 103.461 135.558 124.334 146.105M124.334 146.105C124.31 147.111 124.39 147.671 125.066 148.651M90.9575 181.504C89.7225 183.096 88.7969 183.059 87.0737 182.717L80.8839 179.201M90.9575 181.504C85.6207 163.32 110.987 140.649 125.066 148.651M90.9575 181.504C93.9697 188.547 96.2487 191.419 101.884 193.506M80.8839 179.201C77.7199 174.81 76.7064 172.019 74.8154 167.078M80.8839 179.201C72.4629 188.034 73.2893 192.621 73.2376 200.902M74.8154 167.078C65.3886 176.049 64.9226 183.645 71.053 200.902M71.053 200.902C71.7722 201.373 72.2467 201.347 73.2376 200.902M71.053 200.902C69.2714 199.695 68.3377 198.86 66.8051 196.901M73.2376 200.902C71.5266 201.83 70.7572 202.807 69.7179 205.508M73.2376 200.902C79.9562 216.016 85.9166 217.093 96.7867 217.753M69.7179 205.508C67.6336 202.537 67.2516 200.547 66.8051 196.901M69.7179 205.508C70.3319 225.451 81.3728 232.664 92.0533 234.362M125.066 148.651L127.129 152.651M127.129 152.651L122.274 177.868M127.129 152.651C133.855 160.478 142.179 166.108 148.975 173.018M122.274 177.868C116.438 189.357 111.642 191.953 101.884 193.506M122.274 177.868C123.597 188.549 126.361 192.882 133.804 198.598M101.884 193.506C99.6468 199.415 99.2544 209.825 102.37 215.571M102.37 215.571L96.7867 217.753M102.37 215.571C107.238 221.482 110.923 223.713 120.332 225.633M96.7867 217.753C90.843 223.815 90.4982 227.523 92.0533 234.362M92.0533 234.362L86.8344 233.028C83.9855 239.201 90.533 249.529 100.67 252.154M92.0533 234.362C96.5923 241.999 100.272 244.679 109.409 245.636M107.589 252.667C107.483 249.805 107.769 248.249 109.409 245.636M107.589 252.667C105.157 252.923 102.832 252.714 100.67 252.154M107.589 252.667C110.062 257.778 112.916 259.75 119.968 262.002M109.409 245.636C114.972 245.507 116.883 244.525 119.119 241.878M119.119 241.878C117.006 235.774 116.895 232.25 120.332 225.633M119.119 241.878C121.359 245.689 124.411 247.222 134.047 248.546M120.332 225.633C127.117 225.276 130.284 224.62 132.348 220.905M132.348 220.905C129.458 212.186 130.023 207.302 133.804 198.598M132.348 220.905C136.187 225.851 139.5 228.017 147.155 230.967M133.804 198.598C143.195 198.654 146.808 195.492 150.068 183.565M150.068 183.565L148.975 173.018M150.068 183.565C152.084 191.412 154.082 194.393 159.656 196.658M148.975 173.018C158.381 181.803 159.211 187.108 159.656 196.658M159.656 196.658L160.263 198.113L161.112 197.143M161.112 197.143C167.275 197.067 171.114 193.035 178.104 184.293M161.112 197.143C161.486 191.004 161.591 187.667 162.811 180.656C165.678 171.154 168.07 165.805 175.434 156.167M161.112 197.143C166.137 207.816 165.67 212.271 162.933 219.329M178.104 184.293C182.705 171.106 183.04 164.585 175.434 156.167M178.104 184.293C182.091 190.085 185.836 193.099 194.731 198.113M175.434 156.167C176.99 153.234 177.873 151.589 179.075 148.651M179.075 148.651C179.625 147.194 179.848 146.303 180.046 144.529C196.409 142.417 205.621 150.561 222.039 162.471M179.075 148.651C197.651 148.28 217.162 173.565 204.32 190.395M222.039 162.471C222.593 164.06 222.748 164.94 222.646 166.472M222.039 162.471L226.409 165.502M222.646 166.472C224.423 166.807 225.286 166.673 226.409 165.502M222.646 166.472C223.564 173.111 221.863 177.026 215.243 184.293M226.409 165.502C229.763 170.009 230.498 173.129 231.263 178.959M226.409 165.502L234.683 170.109C234.234 174.614 233.187 175.737 231.263 178.959M231.263 178.959C231.832 192.218 229.888 196.26 225.681 202.356M215.243 184.293C220.724 193.657 220.627 202.437 217.324 208.903M215.243 184.293C211.111 186.917 208.744 188.298 204.32 190.395M191.819 217.995C194.397 218.63 195.795 219.009 197.644 220.056C203.321 226.216 202.377 233.159 198.431 238.241M191.819 217.995C186.154 223.146 182.568 225.293 173.977 225.148M191.819 217.995C194.068 211.537 195.583 208.216 194.731 198.113M191.819 217.995C202.27 222.269 212.802 217.756 217.324 208.903M176.162 243.09C178.242 237.993 179.347 235.095 173.977 225.148M176.162 243.09C172.765 246.497 170.512 248.03 164.753 248.909M176.162 243.09C179.02 245.091 182.288 245.776 185.507 245.476M173.977 225.148C166.644 223.605 164.35 222.312 162.933 219.329M194.731 198.113C198.984 195.901 202.124 193.271 204.32 190.395M100.67 252.154C107.509 263 112.273 265.397 122.031 264.669M122.031 264.669L119.968 262.002M122.031 264.669C131.741 273.034 144.849 274.126 149.582 265.033M119.968 262.002C127.523 264.29 130.606 263.588 135.261 260.911M135.261 260.911C140.197 264.307 143.392 265.011 149.582 265.033M135.261 260.911C132.595 258.199 131.436 256.357 134.047 248.546M149.582 265.033C156.976 265.471 159.52 264.256 163.418 261.517M149.582 265.033C152.082 270.246 165.117 274.974 177.012 260.911M163.418 261.517C167.916 263.274 170.832 263.301 177.012 260.911M163.418 261.517C168.069 256.521 167.196 253.781 164.753 248.909M177.012 260.911C183.129 256.885 188.312 255.475 185.507 245.476M177.012 260.911L175.279 262.822C188.646 264.052 196.087 258.123 196.694 248.909M177.012 260.911C186.401 257.309 190.993 254.635 196.694 248.909M164.753 248.909C153.633 248.067 150.005 245.852 147.155 239.453M147.155 239.453C144.796 245.239 141.209 246.651 134.047 248.546M147.155 239.453V230.967M147.155 230.967C155.27 227.302 158.89 224.828 162.933 219.329M185.507 245.476C190.494 245.012 195.367 242.187 198.431 238.241M185.507 245.476C193.276 245.767 195.966 248.061 196.694 248.909M206.14 236.301C203.222 237.527 201.549 238.046 198.431 238.241M206.14 236.301C219.544 226.167 225.226 220.246 220.098 207.691M206.14 236.301C206.907 243.308 202.536 244.435 196.694 248.909M220.098 207.691L217.324 208.903M220.098 207.691C222.611 205.936 223.716 204.652 225.681 202.356M220.098 207.691C221.452 210.721 221.836 212.249 221.918 215.207C226.19 209.519 226.924 206.726 225.681 202.356" stroke="#FF008A" stroke-width="1.23983"/>
<path d="M120.359 121.616C108.708 105.977 100.453 103.057 83.8273 106.705C91.0046 94.8689 102.757 90.6001 115.618 94.1266C114.177 93.6273 112.787 93.2323 110.893 92.9878C114.638 89.4004 117.741 87.9439 122.301 86.8229L120.723 95.9153C119.874 106.341 118.408 110.6 120.359 121.616Z" fill="url(#paint1_radial_205_1005)"/>
<path d="M161.503 99.3097C159.945 93.9935 158.249 91.0909 154.707 86.2167C160.531 87.8325 163.4 88.6872 165.266 89.9749L161.503 99.3097Z" fill="url(#paint2_radial_205_1005)"/>
<path d="M166.48 107.917L171.213 91.9146C177.257 92.4918 180.451 93.7448 185.656 97.37C177.422 99.5575 173.439 102.374 166.48 107.917Z" fill="url(#paint3_radial_205_1005)"/>
<path d="M199.371 134.467C204.954 121.859 206.338 120.621 212.114 111.918C227.067 120.254 232.14 133.982 228.863 142.953C229.483 144.371 229.216 145.635 229.106 146.954C223.523 139.195 218.333 131.101 199.371 134.467Z" fill="url(#paint4_radial_205_1005)"/>
<path d="M120.723 95.9153C105.916 89.6112 91.9453 93.3177 83.8273 106.705C100.453 103.057 108.708 105.977 120.359 121.616C118.408 110.6 119.874 106.341 120.723 95.9153ZM120.723 95.9153C116.476 94.5817 114.705 93.4798 110.893 92.9878C114.638 89.4004 117.741 87.9439 122.301 86.8229L120.723 95.9153ZM154.707 86.2167C158.249 91.0909 159.945 93.9935 161.503 99.3097L165.266 89.9749C163.4 88.6872 160.531 87.8325 154.707 86.2167ZM171.213 91.9146L166.48 107.917C173.439 102.374 177.422 99.5575 185.656 97.37C180.451 93.7448 177.257 92.4918 171.213 91.9146ZM212.114 111.918C206.338 120.621 204.954 121.859 199.371 134.467C218.333 131.101 223.523 139.195 229.106 146.954C229.216 145.635 229.483 144.371 228.863 142.953C232.14 133.982 227.067 120.254 212.114 111.918Z" stroke="#FF008A" stroke-width="1.23983"/>
<path d="M123.998 142.468C107.052 119.566 44.8904 131.604 39.7684 122.828C42.3737 123.366 44.4025 123.748 46.4603 123.938C50.8009 124.34 54.9777 122.516 58.5738 120.052C90.1306 98.4306 105.265 101.885 120.6 122.222C118.065 107.143 121.005 88.3802 133.344 38.6934C130.375 62.7881 137.942 69.2019 150.336 81.4882C156.136 87.7051 158.646 91.671 161.501 99.7942C171.683 73.9861 177.273 61.5849 187.474 43.1789C189.659 41.3605 193.3 42.5728 193.3 45.6036C181.163 66.213 173.994 78.8659 166.114 108.402C178.922 97.5286 187.353 96.1572 221.094 91.0655C233.874 85.9317 239.42 81.8519 249.251 75.3053C236.75 90.7018 212.719 100.4 199.005 134.83C223.705 128.106 229.954 149.62 240.998 168.896C244.854 170.894 247.091 171.325 251.072 172.169C241.984 173.299 236.143 173.503 208.35 152.287C197.627 145.705 191.47 142.834 179.828 144.286C178.97 155.56 160.117 168.63 161.137 194.112C160.933 197.268 161.037 197.141 160.288 197.871L159.924 196.658L159.802 194.355C159.57 182.991 158.103 181.141 140.141 164.653C128.125 154.833 124.605 150.711 123.998 142.468Z" fill="url(#paint5_radial_205_1005)"/>
<path d="M161.501 99.7941C158.646 91.671 156.136 87.7051 150.336 81.4882C137.942 69.2019 130.375 62.7881 133.344 38.6934C121.005 88.3802 118.065 107.143 120.6 122.222C105.265 101.885 90.1306 98.4306 58.5738 120.052C54.9777 122.516 50.8009 124.34 46.4603 123.938C44.4025 123.748 42.3737 123.366 39.7684 122.828C44.8904 131.604 107.052 119.566 123.998 142.468C124.605 150.711 128.125 154.833 140.141 164.653C158.103 181.141 159.57 182.991 159.802 194.355L159.924 196.658L160.288 197.871C161.037 197.141 160.933 197.268 161.137 194.112C160.117 168.63 178.97 155.56 179.828 144.286C191.47 142.834 197.627 145.705 208.35 152.287C236.143 173.503 241.984 173.299 251.072 172.169C247.091 171.325 244.854 170.894 240.998 168.896C229.954 149.62 223.705 128.106 199.005 134.83C212.719 100.4 236.75 90.7018 249.251 75.3053C239.42 81.8519 233.874 85.9317 221.094 91.0655C187.353 96.1572 178.922 97.5286 166.114 108.402M161.501 99.7941C171.683 73.9861 177.273 61.5849 187.474 43.1789C189.659 41.3605 193.3 42.5728 193.3 45.6036C181.163 66.213 173.994 78.8659 166.114 108.402M161.501 99.7941L148.03 138.588C149.885 140.187 150.815 141.179 152.763 141.862C153.842 142.508 155.178 141.982 158.225 140.649L166.114 108.402" stroke="#98FF7E" stroke-width="1.23983"/>
</g>
<path d="M70.3491 127.314L75.0825 127.314C105.182 129.618 115.62 133.618 123.488 141.983L124.334 146.105C124.31 147.111 124.39 147.671 125.066 148.651L127.129 152.651C133.855 160.478 142.179 166.108 148.975 173.018C158.381 181.803 159.211 187.108 159.656 196.658L160.263 198.113L161.112 197.143C161.486 191.004 161.591 187.667 162.811 180.656C165.678 171.154 168.07 165.805 175.434 156.167L175.556 155.937C177.037 153.146 177.905 151.511 179.075 148.651C179.625 147.194 179.848 146.303 180.046 144.529C196.409 142.417 205.621 150.561 222.039 162.471L226.409 165.502L234.683 170.109C234.234 174.614 233.187 175.737 231.264 178.959C231.832 192.218 229.888 196.26 225.681 202.356C226.921 206.716 226.193 209.506 221.948 215.168C222.334 223.072 216.578 228.409 206.14 236.301C206.907 243.308 202.536 244.435 196.694 248.909C196.087 258.123 188.646 264.052 175.279 262.822C163.881 274.515 151.961 269.994 149.582 265.033C144.849 274.126 131.741 273.034 122.031 264.669C112.273 265.397 107.509 263 100.67 252.154C90.5461 249.532 84.0024 239.228 86.8235 233.052C78.0357 229.96 70.2313 222.185 69.7179 205.508C67.6336 202.537 67.2516 200.547 66.8051 196.901C62.2078 189.055 59.8796 184.451 64.9845 168.654C60.1326 160.289 62.0014 141.658 71.4171 136.649C70.1719 133.609 70.1575 130.335 70.3491 127.314Z" fill="url(#paint6_radial_205_1005)"/>
<path d="M75.0825 127.314L70.3491 127.314C70.1576 130.335 70.1719 133.609 71.4171 136.649M75.0825 127.314L71.4171 136.649M75.0825 127.314C105.182 129.618 115.62 133.618 123.488 141.983L124.334 146.105M71.4171 136.649C62.0014 141.658 60.1326 160.289 64.9845 168.654M71.4171 136.649C68.4616 152.189 70.4532 154.725 75.5436 156.652M64.9845 168.654C68.3898 163.108 70.448 160.596 74.8154 159.077M64.9845 168.654C59.8796 184.451 62.2078 189.055 66.8051 196.901M74.8154 159.077L75.5436 156.652M74.8154 159.077C74.3983 162.343 74.4436 164.115 74.8154 167.078M75.5436 156.652C85.9016 136.701 103.461 135.558 124.334 146.105M124.334 146.105C124.31 147.111 124.39 147.671 125.066 148.651M90.9575 181.504C89.7225 183.096 88.7969 183.059 87.0737 182.717L80.8839 179.201M90.9575 181.504C85.6207 163.32 110.987 140.649 125.066 148.651M90.9575 181.504C93.9697 188.547 96.2487 191.419 101.884 193.506M80.8839 179.201C77.7199 174.81 76.7064 172.019 74.8154 167.078M80.8839 179.201C72.4629 188.034 73.2893 192.621 73.2376 200.902M74.8154 167.078C65.3886 176.049 64.9226 183.645 71.053 200.902M71.053 200.902C71.7722 201.373 72.2467 201.347 73.2376 200.902M71.053 200.902C69.2714 199.695 68.3377 198.86 66.8051 196.901M73.2376 200.902C71.5266 201.83 70.7572 202.807 69.7179 205.508M73.2376 200.902C79.9562 216.016 85.9166 217.093 96.7867 217.753M69.7179 205.508C67.6336 202.537 67.2516 200.547 66.8051 196.901M69.7179 205.508C70.3319 225.451 81.3728 232.664 92.0533 234.362M125.066 148.651L127.129 152.651M127.129 152.651L122.274 177.868M127.129 152.651C133.855 160.478 142.179 166.108 148.975 173.018M122.274 177.868C116.438 189.357 111.642 191.953 101.884 193.506M122.274 177.868C123.597 188.549 126.361 192.882 133.804 198.598M101.884 193.506C99.6468 199.415 99.2544 209.825 102.37 215.571M102.37 215.571L96.7867 217.753M102.37 215.571C107.238 221.482 110.923 223.713 120.332 225.633M96.7867 217.753C90.843 223.815 90.4982 227.523 92.0533 234.362M92.0533 234.362L86.8344 233.028C83.9855 239.201 90.533 249.529 100.67 252.154M92.0533 234.362C96.5923 241.999 100.272 244.679 109.409 245.636M107.589 252.667C107.483 249.805 107.769 248.249 109.409 245.636M107.589 252.667C105.157 252.923 102.832 252.714 100.67 252.154M107.589 252.667C110.062 257.778 112.916 259.75 119.968 262.002M109.409 245.636C114.972 245.507 116.883 244.525 119.119 241.878M119.119 241.878C117.006 235.774 116.895 232.25 120.332 225.633M119.119 241.878C121.359 245.689 124.411 247.222 134.047 248.546M120.332 225.633C127.117 225.276 130.284 224.62 132.348 220.905M132.348 220.905C129.458 212.186 130.023 207.302 133.804 198.598M132.348 220.905C136.187 225.851 139.5 228.017 147.155 230.967M133.804 198.598C143.195 198.654 146.808 195.492 150.068 183.565M150.068 183.565L148.975 173.018M150.068 183.565C152.084 191.412 154.082 194.393 159.656 196.658M148.975 173.018C158.381 181.803 159.211 187.108 159.656 196.658M159.656 196.658L160.263 198.113L161.112 197.143M161.112 197.143C167.275 197.067 171.114 193.035 178.104 184.293M161.112 197.143C161.486 191.004 161.591 187.667 162.811 180.656C165.678 171.154 168.07 165.805 175.434 156.167M161.112 197.143C166.137 207.816 165.67 212.271 162.933 219.329M178.104 184.293C182.705 171.106 183.04 164.585 175.434 156.167M178.104 184.293C182.091 190.085 185.836 193.099 194.731 198.113M175.434 156.167C176.99 153.234 177.873 151.589 179.075 148.651M179.075 148.651C179.625 147.194 179.848 146.303 180.046 144.529C196.409 142.417 205.621 150.561 222.039 162.471M179.075 148.651C197.651 148.28 217.162 173.565 204.32 190.395M222.039 162.471C222.593 164.06 222.748 164.94 222.646 166.472M222.039 162.471L226.409 165.502M222.646 166.472C224.423 166.807 225.286 166.673 226.409 165.502M222.646 166.472C223.564 173.111 221.863 177.026 215.243 184.293M226.409 165.502C229.763 170.009 230.498 173.129 231.263 178.959M226.409 165.502L234.683 170.109C234.234 174.614 233.187 175.737 231.263 178.959M231.263 178.959C231.832 192.218 229.888 196.26 225.681 202.356M215.243 184.293C220.724 193.657 220.627 202.437 217.324 208.903M215.243 184.293C211.111 186.917 208.744 188.298 204.32 190.395M191.819 217.995C194.397 218.63 195.795 219.009 197.644 220.056C203.321 226.216 202.377 233.159 198.431 238.241M191.819 217.995C186.154 223.146 182.568 225.293 173.977 225.148M191.819 217.995C194.068 211.537 195.583 208.216 194.731 198.113M191.819 217.995C202.27 222.269 212.802 217.756 217.324 208.903M176.162 243.09C178.242 237.993 179.347 235.095 173.977 225.148M176.162 243.09C172.765 246.497 170.512 248.03 164.753 248.909M176.162 243.09C179.02 245.091 182.288 245.776 185.507 245.476M173.977 225.148C166.644 223.605 164.35 222.312 162.933 219.329M194.731 198.113C198.984 195.901 202.124 193.271 204.32 190.395M100.67 252.154C107.509 263 112.273 265.397 122.031 264.669M122.031 264.669L119.968 262.002M122.031 264.669C131.741 273.034 144.849 274.126 149.582 265.033M119.968 262.002C127.523 264.29 130.606 263.588 135.261 260.911M135.261 260.911C140.197 264.307 143.392 265.011 149.582 265.033M135.261 260.911C132.595 258.199 131.436 256.357 134.047 248.546M149.582 265.033C156.976 265.471 159.52 264.256 163.418 261.517M149.582 265.033C152.082 270.246 165.117 274.974 177.012 260.911M163.418 261.517C167.916 263.274 170.832 263.301 177.012 260.911M163.418 261.517C168.069 256.521 167.196 253.781 164.753 248.909M177.012 260.911C183.129 256.885 188.312 255.475 185.507 245.476M177.012 260.911L175.279 262.822C188.646 264.052 196.087 258.123 196.694 248.909M177.012 260.911C186.401 257.309 190.993 254.635 196.694 248.909M164.753 248.909C153.633 248.067 150.005 245.852 147.155 239.453M147.155 239.453C144.796 245.239 141.209 246.651 134.047 248.546M147.155 239.453V230.967M147.155 230.967C155.27 227.302 158.89 224.828 162.933 219.329M185.507 245.476C190.494 245.012 195.367 242.187 198.431 238.241M185.507 245.476C193.276 245.767 195.966 248.061 196.694 248.909M206.14 236.301C203.222 237.527 201.549 238.046 198.431 238.241M206.14 236.301C219.544 226.167 225.226 220.246 220.098 207.691M206.14 236.301C206.907 243.308 202.536 244.435 196.694 248.909M220.098 207.691L217.324 208.903M220.098 207.691C222.611 205.936 223.716 204.652 225.681 202.356M220.098 207.691C221.452 210.721 221.836 212.249 221.918 215.207C226.19 209.519 226.924 206.726 225.681 202.356" stroke="#FF008A" stroke-width="1.23983"/>
<path d="M120.359 121.616C108.708 105.977 100.453 103.057 83.8273 106.705C91.0046 94.8689 102.757 90.6001 115.618 94.1266C114.177 93.6273 112.787 93.2323 110.893 92.9878C114.638 89.4004 117.741 87.9439 122.301 86.8229L120.723 95.9153C119.874 106.341 118.408 110.6 120.359 121.616Z" fill="url(#paint7_radial_205_1005)"/>
<path d="M161.503 99.3097C159.945 93.9935 158.249 91.0909 154.707 86.2167C160.531 87.8325 163.4 88.6872 165.266 89.9749L161.503 99.3097Z" fill="url(#paint8_radial_205_1005)"/>
<path d="M166.48 107.917L171.213 91.9146C177.257 92.4918 180.451 93.7448 185.656 97.37C177.422 99.5575 173.439 102.374 166.48 107.917Z" fill="url(#paint9_radial_205_1005)"/>
<path d="M199.371 134.467C204.954 121.859 206.338 120.621 212.114 111.918C227.067 120.254 232.14 133.982 228.863 142.953C229.483 144.371 229.216 145.635 229.106 146.954C223.523 139.195 218.333 131.101 199.371 134.467Z" fill="url(#paint10_radial_205_1005)"/>
<path d="M120.723 95.9153C105.916 89.6112 91.9453 93.3177 83.8273 106.705C100.453 103.057 108.708 105.977 120.359 121.616C118.408 110.6 119.874 106.341 120.723 95.9153ZM120.723 95.9153C116.476 94.5817 114.705 93.4798 110.893 92.9878C114.638 89.4004 117.741 87.9439 122.301 86.8229L120.723 95.9153ZM154.707 86.2167C158.249 91.0909 159.945 93.9935 161.503 99.3097L165.266 89.9749C163.4 88.6872 160.531 87.8325 154.707 86.2167ZM171.213 91.9146L166.48 107.917C173.439 102.374 177.422 99.5575 185.656 97.37C180.451 93.7448 177.257 92.4918 171.213 91.9146ZM212.114 111.918C206.338 120.621 204.954 121.859 199.371 134.467C218.333 131.101 223.523 139.195 229.106 146.954C229.216 145.635 229.483 144.371 228.863 142.953C232.14 133.982 227.067 120.254 212.114 111.918Z" stroke="#FF008A" stroke-width="1.23983"/>
<path d="M123.998 142.468C107.052 119.566 44.8904 131.604 39.7684 122.828C42.3737 123.366 44.4025 123.748 46.4603 123.938C50.8009 124.34 54.9777 122.516 58.5738 120.052C90.1306 98.4306 105.265 101.885 120.6 122.222C118.065 107.143 121.005 88.3802 133.344 38.6934C130.375 62.7881 137.942 69.2019 150.336 81.4882C156.136 87.7051 158.646 91.671 161.501 99.7942C171.683 73.9861 177.273 61.5849 187.474 43.1789C189.659 41.3605 193.3 42.5728 193.3 45.6036C181.163 66.213 173.994 78.8659 166.114 108.402C178.922 97.5286 187.353 96.1572 221.094 91.0655C233.874 85.9317 239.42 81.8519 249.251 75.3053C236.75 90.7018 212.719 100.4 199.005 134.83C223.705 128.106 229.954 149.62 240.998 168.896C244.854 170.894 247.091 171.325 251.072 172.169C241.984 173.299 236.143 173.503 208.35 152.287C197.627 145.705 191.47 142.834 179.828 144.286C178.97 155.56 160.117 168.63 161.137 194.112C160.933 197.268 161.037 197.141 160.288 197.871L159.924 196.658L159.802 194.355C159.57 182.991 158.103 181.141 140.141 164.653C128.125 154.833 124.605 150.711 123.998 142.468Z" fill="url(#paint11_radial_205_1005)"/>
<path d="M161.501 99.7941C158.646 91.671 156.136 87.7051 150.336 81.4882C137.942 69.2019 130.375 62.7881 133.344 38.6934C121.005 88.3802 118.065 107.143 120.6 122.222C105.265 101.885 90.1306 98.4306 58.5738 120.052C54.9777 122.516 50.8009 124.34 46.4603 123.938C44.4025 123.748 42.3737 123.366 39.7684 122.828C44.8904 131.604 107.052 119.566 123.998 142.468C124.605 150.711 128.125 154.833 140.141 164.653C158.103 181.141 159.57 182.991 159.802 194.355L159.924 196.658L160.288 197.871C161.037 197.141 160.933 197.268 161.137 194.112C160.117 168.63 178.97 155.56 179.828 144.286C191.47 142.834 197.627 145.705 208.35 152.287C236.143 173.503 241.984 173.299 251.072 172.169C247.091 171.325 244.854 170.894 240.998 168.896C229.954 149.62 223.705 128.106 199.005 134.83C212.719 100.4 236.75 90.7018 249.251 75.3053C239.42 81.8519 233.874 85.9317 221.094 91.0655C187.353 96.1572 178.922 97.5286 166.114 108.402M161.501 99.7941C171.683 73.9861 177.273 61.5849 187.474 43.1789C189.659 41.3605 193.3 42.5728 193.3 45.6036C181.163 66.213 173.994 78.8659 166.114 108.402M161.501 99.7941L148.03 138.588C149.885 140.187 150.815 141.179 152.763 141.862C153.842 142.508 155.178 141.982 158.225 140.649L166.114 108.402" stroke="#98FF7E" stroke-width="1.23983"/>
<path d="M134.677 30.408L112.811 76.7251M134.677 30.408L159.558 53.3783M134.677 30.408L170.868 108.733M112.811 76.7251L65.3108 95.1766M112.811 76.7251L109.795 127.937M112.811 76.7251L170.868 108.733M65.3108 95.1766L25.3501 123.795M65.3108 95.1766L109.795 127.937M25.3501 123.795L50.2313 156.18M25.3501 123.795L109.795 127.937M50.2313 156.18L60.787 212.664M50.2313 156.18L109.795 127.937M50.2313 156.18L104.518 174.631M60.787 212.664L91.7 269.901M60.787 212.664L104.518 226.597M60.787 212.664L104.518 174.631M91.7 269.901L143.724 286.47M91.7 269.901L104.518 226.597M143.724 286.47L201.027 269.901M143.724 286.47L156.919 223.208M143.724 286.47L104.518 226.597M201.027 269.901L233.448 229.986M201.027 269.901V199.108M201.027 269.901L156.919 223.208M233.448 229.986L246.265 200.614M233.448 229.986L201.027 199.108M246.265 200.614L268.507 173.501M246.265 200.614L207.435 159.569M246.265 200.614L201.027 199.108M268.507 173.501L252.297 142.623M268.507 173.501L207.435 159.569M252.297 142.623L236.463 114.758M252.297 142.623L207.435 159.569M236.463 114.758L264.361 67.311M236.463 114.758L170.868 108.733M236.463 114.758L207.435 159.569M264.361 67.311L198.011 78.6079M264.361 67.311L170.868 108.733M198.011 78.6079V34.9267M198.011 78.6079L170.868 108.733M198.011 34.9267L159.558 53.3783M198.011 34.9267L170.868 108.733M159.558 53.3783L170.868 108.733M170.868 108.733L109.795 127.937M170.868 108.733L156.919 150.908M170.868 108.733L207.435 159.569M109.795 127.937L104.518 174.631M109.795 127.937L156.919 150.908M104.518 174.631V226.597M104.518 174.631L156.919 150.908M104.518 174.631L156.919 223.208M104.518 226.597L156.919 223.208M156.919 223.208L201.027 199.108M156.919 223.208V150.908M201.027 199.108L207.435 159.569M201.027 199.108L156.919 150.908M207.435 159.569L156.919 150.908" stroke="#FF82B6" stroke-opacity="0.5" stroke-width="1.23983"/>
<ellipse cx="236.534" cy="115.365" rx="3.7237" ry="3.71949" fill="white"/>
<ellipse cx="264.444" cy="67.6752" rx="3.7237" ry="3.71949" fill="white"/>
<ellipse cx="199.156" cy="78.6811" rx="3.7237" ry="3.71949" fill="white"/>
<ellipse cx="198.084" cy="35.5343" rx="3.7237" ry="3.71949" fill="white"/>
<ellipse cx="160.166" cy="52.7556" rx="3.7237" ry="3.71949" fill="white"/>
<ellipse cx="134.748" cy="28.8742" rx="3.7237" ry="3.71949" fill="white"/>
<ellipse cx="112.885" cy="76.6384" rx="3.7237" ry="3.71949" fill="white"/>
<ellipse cx="65.9193" cy="94.714" rx="3.7237" ry="3.71949" fill="white"/>
<ellipse cx="27.5658" cy="126.01" rx="3.7237" ry="3.71949" fill="white"/>
<ellipse cx="52.4487" cy="158.393" rx="3.7237" ry="3.71949" fill="white"/>
<ellipse cx="104.589" cy="174.545" rx="3.7237" ry="3.71949" fill="white"/>
<ellipse cx="112.013" cy="129.774" rx="3.7237" ry="3.71949" fill="white"/>
<ellipse cx="171.473" cy="108.805" rx="3.7237" ry="3.71949" fill="white"/>
<ellipse cx="207.663" cy="159.264" rx="3.7237" ry="3.71949" fill="white"/>
<ellipse cx="156.614" cy="150.98" rx="3.7237" ry="3.71949" fill="white"/>
<ellipse cx="157.15" cy="222.745" rx="3.7237" ry="3.71949" fill="white"/>
<ellipse cx="201.631" cy="199.179" rx="3.7237" ry="3.71949" fill="white"/>
<ellipse cx="104.589" cy="226.51" rx="3.7237" ry="3.71949" fill="white"/>
<ellipse cx="63.004" cy="214.878" rx="3.7237" ry="3.71949" fill="white"/>
<ellipse cx="93.9136" cy="272.115" rx="3.7237" ry="3.71949" fill="white"/>
<ellipse cx="201.095" cy="269.438" rx="3.7237" ry="3.71949" fill="white"/>
<ellipse cx="143.875" cy="286.054" rx="3.7237" ry="3.71949" fill="white"/>
<ellipse cx="234.59" cy="230.593" rx="3.7237" ry="3.71949" fill="white"/>
<ellipse cx="246.338" cy="200.686" rx="3.7237" ry="3.71949" fill="white"/>
<ellipse cx="269.276" cy="173.038" rx="3.7237" ry="3.71949" fill="white"/>
<ellipse cx="252.369" cy="142.696" rx="3.7237" ry="3.71949" fill="white"/>
<defs>
<filter id="filter0_f_205_1005" x="0.0975723" y="0.109245" width="289.538" height="310.354" filterUnits="userSpaceOnUse" color-interpolation-filters="sRGB">
<feFlood flood-opacity="0" result="BackgroundImageFix"/>
<feBlend mode="normal" in="SourceGraphic" in2="BackgroundImageFix" result="shape"/>
<feGaussianBlur stdDeviation="19.2174" result="effect1_foregroundBlur_205_1005"/>
</filter>
<radialGradient id="paint0_radial_205_1005" cx="0" cy="0" r="1" gradientUnits="userSpaceOnUse" gradientTransform="translate(148.389 199.362) rotate(90.1925) scale(188.806 137.813)">
<stop stop-color="#FF1694" stop-opacity="0"/>
<stop offset="1" stop-color="#FF1694"/>
</radialGradient>
<radialGradient id="paint1_radial_205_1005" cx="0" cy="0" r="1" gradientUnits="userSpaceOnUse" gradientTransform="translate(156.822 116.585) rotate(90.3863) scale(79.5842 116.572)">
<stop stop-color="#FF1694" stop-opacity="0"/>
<stop offset="1" stop-color="#FF1694"/>
</radialGradient>
<radialGradient id="paint2_radial_205_1005" cx="0" cy="0" r="1" gradientUnits="userSpaceOnUse" gradientTransform="translate(156.822 116.585) rotate(90.3863) scale(79.5842 116.572)">
<stop stop-color="#FF1694" stop-opacity="0"/>
<stop offset="1" stop-color="#FF1694"/>
</radialGradient>
<radialGradient id="paint3_radial_205_1005" cx="0" cy="0" r="1" gradientUnits="userSpaceOnUse" gradientTransform="translate(156.822 116.585) rotate(90.3863) scale(79.5842 116.572)">
<stop stop-color="#FF1694" stop-opacity="0"/>
<stop offset="1" stop-color="#FF1694"/>
</radialGradient>
<radialGradient id="paint4_radial_205_1005" cx="0" cy="0" r="1" gradientUnits="userSpaceOnUse" gradientTransform="translate(156.822 116.585) rotate(90.3863) scale(79.5842 116.572)">
<stop stop-color="#FF1694" stop-opacity="0"/>
<stop offset="1" stop-color="#FF1694"/>
</radialGradient>
<radialGradient id="paint5_radial_205_1005" cx="0" cy="0" r="1" gradientUnits="userSpaceOnUse" gradientTransform="translate(148.793 141.767) rotate(88.4114) scale(120.081 159.583)">
<stop stop-color="#98FF7E" stop-opacity="0"/>
<stop offset="1" stop-color="#98FF7E"/>
</radialGradient>
<radialGradient id="paint6_radial_205_1005" cx="0" cy="0" r="1" gradientUnits="userSpaceOnUse" gradientTransform="translate(148.389 199.362) rotate(90.1925) scale(188.806 137.813)">
<stop stop-color="#FF1694" stop-opacity="0"/>
<stop offset="1" stop-color="#FF1694"/>
</radialGradient>
<radialGradient id="paint7_radial_205_1005" cx="0" cy="0" r="1" gradientUnits="userSpaceOnUse" gradientTransform="translate(156.822 116.585) rotate(90.3863) scale(79.5842 116.572)">
<stop stop-color="#FF1694" stop-opacity="0"/>
<stop offset="1" stop-color="#FF1694"/>
</radialGradient>
<radialGradient id="paint8_radial_205_1005" cx="0" cy="0" r="1" gradientUnits="userSpaceOnUse" gradientTransform="translate(156.822 116.585) rotate(90.3863) scale(79.5842 116.572)">
<stop stop-color="#FF1694" stop-opacity="0"/>
<stop offset="1" stop-color="#FF1694"/>
</radialGradient>
<radialGradient id="paint9_radial_205_1005" cx="0" cy="0" r="1" gradientUnits="userSpaceOnUse" gradientTransform="translate(156.822 116.585) rotate(90.3863) scale(79.5842 116.572)">
<stop stop-color="#FF1694" stop-opacity="0"/>
<stop offset="1" stop-color="#FF1694"/>
</radialGradient>
<radialGradient id="paint10_radial_205_1005" cx="0" cy="0" r="1" gradientUnits="userSpaceOnUse" gradientTransform="translate(156.822 116.585) rotate(90.3863) scale(79.5842 116.572)">
<stop stop-color="#FF1694" stop-opacity="0"/>
<stop offset="1" stop-color="#FF1694"/>
</radialGradient>
<radialGradient id="paint11_radial_205_1005" cx="0" cy="0" r="1" gradientUnits="userSpaceOnUse" gradientTransform="translate(148.793 141.767) rotate(88.4114) scale(120.081 159.583)">
<stop stop-color="#98FF7E" stop-opacity="0"/>
<stop offset="1" stop-color="#98FF7E"/>
</radialGradient>
</defs>
</svg>
